<?xml version="1.0" encoding="UTF-8"?>
<svg id="Layer_2" data-name="Layer 2" xmlns="http://www.w3.org/2000/svg" xmlns:xlink="http://www.w3.org/1999/xlink" viewBox="0 0 71.6 109.59">
  <defs>
    <style>
      .cls-1 {
        fill: url(#Degradado_sin_nombre_270);
      }

      .cls-2 {
        fill: url(#Degradado_sin_nombre_270-16);
      }

      .cls-3 {
        fill: url(#Degradado_sin_nombre_270-11);
      }

      .cls-4 {
        fill: url(#Degradado_sin_nombre_270-10);
      }

      .cls-5 {
        fill: url(#Degradado_sin_nombre_270-17);
      }

      .cls-6 {
        fill: url(#Degradado_sin_nombre_270-15);
      }

      .cls-7 {
        fill: url(#Degradado_sin_nombre_270-14);
      }

      .cls-8 {
        fill: url(#Degradado_sin_nombre_270-13);
      }

      .cls-9 {
        fill: url(#Degradado_sin_nombre_270-12);
      }

      .cls-10 {
        fill: url(#Degradado_sin_nombre_270-8);
      }

      .cls-11 {
        fill: url(#Degradado_sin_nombre_270-9);
      }

      .cls-12 {
        fill: url(#Degradado_sin_nombre_270-6);
      }

      .cls-13 {
        fill: url(#Degradado_sin_nombre_270-7);
      }

      .cls-14 {
        fill: url(#Degradado_sin_nombre_270-4);
      }

      .cls-15 {
        fill: url(#Degradado_sin_nombre_270-5);
      }

      .cls-16 {
        fill: url(#Degradado_sin_nombre_270-2);
      }

      .cls-17 {
        fill: url(#Degradado_sin_nombre_270-3);
      }
    </style>
    <linearGradient id="Degradado_sin_nombre_270" data-name="Degradado sin nombre 270" x1="-183.46" y1="117.63" x2="-261.34" y2="-23.87" gradientTransform="translate(-173.52) rotate(-180) scale(1 -1)" gradientUnits="userSpaceOnUse">
      <stop offset="0" stop-color="#e4c584"/>
      <stop offset=".05" stop-color="#dab772"/>
      <stop offset=".12" stop-color="#c99e52"/>
      <stop offset=".26" stop-color="#dbbd84"/>
      <stop offset=".49" stop-color="#b48126"/>
      <stop offset=".64" stop-color="#dfbe81"/>
      <stop offset=".65" stop-color="#e3c389"/>
      <stop offset=".85" stop-color="#bc8c37"/>
      <stop offset="1" stop-color="#eee2ce"/>
    </linearGradient>
    <linearGradient id="Degradado_sin_nombre_270-2" data-name="Degradado sin nombre 270" x1="-192.43" y1="122.56" x2="-270.31" y2="-18.94" xlink:href="#Degradado_sin_nombre_270"/>
    <linearGradient id="Degradado_sin_nombre_270-3" data-name="Degradado sin nombre 270" x1="-198.36" y1="125.82" x2="-276.24" y2="-15.68" xlink:href="#Degradado_sin_nombre_270"/>
    <linearGradient id="Degradado_sin_nombre_270-4" data-name="Degradado sin nombre 270" x1="-200.5" y1="127" x2="-278.38" y2="-14.5" xlink:href="#Degradado_sin_nombre_270"/>
    <linearGradient id="Degradado_sin_nombre_270-5" data-name="Degradado sin nombre 270" x1="-200.46" y1="126.98" x2="-278.34" y2="-14.52" xlink:href="#Degradado_sin_nombre_270"/>
    <linearGradient id="Degradado_sin_nombre_270-6" data-name="Degradado sin nombre 270" x1="-199.21" y1="126.3" x2="-277.09" y2="-15.21" xlink:href="#Degradado_sin_nombre_270"/>
    <linearGradient id="Degradado_sin_nombre_270-7" data-name="Degradado sin nombre 270" x1="-185.81" y1="118.92" x2="-263.69" y2="-22.59" xlink:href="#Degradado_sin_nombre_270"/>
    <linearGradient id="Degradado_sin_nombre_270-8" data-name="Degradado sin nombre 270" x1="-180.8" y1="116.16" x2="-258.68" y2="-25.34" xlink:href="#Degradado_sin_nombre_270"/>
    <linearGradient id="Degradado_sin_nombre_270-9" data-name="Degradado sin nombre 270" x1="-181.21" y1="97.6" x2="-246.7" y2="-21.4" xlink:href="#Degradado_sin_nombre_270"/>
    <linearGradient id="Degradado_sin_nombre_270-10" data-name="Degradado sin nombre 270" x1="-194.99" y1="123.97" x2="-272.87" y2="-17.53" xlink:href="#Degradado_sin_nombre_270"/>
    <linearGradient id="Degradado_sin_nombre_270-11" data-name="Degradado sin nombre 270" x1="-188.84" y1="120.59" x2="-266.72" y2="-20.92" xlink:href="#Degradado_sin_nombre_270"/>
    <linearGradient id="Degradado_sin_nombre_270-12" data-name="Degradado sin nombre 270" x1="-179.28" y1="115.32" x2="-257.16" y2="-26.18" xlink:href="#Degradado_sin_nombre_270"/>
    <linearGradient id="Degradado_sin_nombre_270-13" data-name="Degradado sin nombre 270" x1="-172.63" y1="111.66" x2="-250.51" y2="-29.84" xlink:href="#Degradado_sin_nombre_270"/>
    <linearGradient id="Degradado_sin_nombre_270-14" data-name="Degradado sin nombre 270" x1="-178.4" y1="114.84" x2="-256.28" y2="-26.66" xlink:href="#Degradado_sin_nombre_270"/>
    <linearGradient id="Degradado_sin_nombre_270-15" data-name="Degradado sin nombre 270" x1="-183.41" y1="117.6" x2="-261.29" y2="-23.91" xlink:href="#Degradado_sin_nombre_270"/>
    <linearGradient id="Degradado_sin_nombre_270-16" data-name="Degradado sin nombre 270" x1="-186.25" y1="119.16" x2="-264.13" y2="-22.34" xlink:href="#Degradado_sin_nombre_270"/>
    <linearGradient id="Degradado_sin_nombre_270-17" data-name="Degradado sin nombre 270" x1="-176.78" y1="114.72" x2="-260.86" y2="-38.05" xlink:href="#Degradado_sin_nombre_270"/>
  </defs>
  <g id="OBJECTS">
    <g>
      <path class="cls-1" d="M6.27,101.2c-.2-.35-.03-.81.36-.94,2.04-.7,8.06-2.2,13.71,1.74,4.79,3.34,7.1,4.64,8.08,5.12.24.12.23.46,0,.57-2.86,1.3-15,5.87-22.14-6.49Z"/>
      <path class="cls-16" d="M20.07,97.08c-.24-.3-.07-.73.3-.81,1.86-.37,6.35-2,8.84-2.96,3.29-1.28,9.14,1.19,14.63,4.48,0,0,.37.25.9.38.44.11.58.65.24.94-2.27,1.9-7.96,5.79-14.58,3.89-6.48-1.86-9.32-4.65-10.32-5.92Z"/>
      <path class="cls-17" d="M34.14,88.98l7.89-3.91c.95-.47,2.02-.63,3.06-.45,2.73.47,8.24,1.52,11.34,2.9.24.11.32.42.15.63-1.09,1.37-4.87,5.69-9.1,5.53-4.35-.16-11.49-3.39-13.35-4.26-.19-.09-.18-.35,0-.44Z"/>
      <path class="cls-14" d="M43.2,81.18l6.64-5.79c.8-.7,1.79-1.12,2.85-1.21,2.76-.25,8.36-.63,11.71-.08.26.04.41.33.3.57-.7,1.6-3.26,6.74-7.39,7.67-4.24.95-11.98-.35-14-.72-.2-.04-.27-.29-.11-.43Z"/>
      <path class="cls-15" d="M50.75,70.35l5.38-6.22c.65-.75,1.51-1.27,2.47-1.49,2.52-.59,7.64-1.67,10.81-1.6.25,0,.42.25.36.49-.44,1.57-2.13,6.65-5.83,8.05-3.8,1.43-11.11,1.24-13.03,1.16-.19,0-.28-.23-.16-.38Z"/>
      <path class="cls-12" d="M56.79,60.55l3.46-6.43c.42-.77,1.06-1.39,1.85-1.77,2.07-1,6.3-2.93,9.06-3.48.22-.04.41.13.4.35-.08,1.45-.56,6.18-3.49,8.1-3.01,1.98-9.39,3.22-11.06,3.53-.17.03-.29-.15-.21-.3Z"/>
      <path class="cls-13" d="M52.67,60.21l1.56-8.04c.19-.97.06-1.97-.35-2.86-1.09-2.34-3.4-7.02-5.4-9.46-.16-.19-.45-.18-.6.02-.96,1.32-3.9,5.77-2.72,9.53,1.21,3.86,5.88,9.47,7.12,10.92.12.15.36.08.4-.11Z"/>
      <path class="cls-10" d="M57.45,42.91l-.41-8.18c-.05-.98-.41-1.92-1.03-2.69-1.62-2.01-4.97-6.01-7.5-7.9-.2-.15-.48-.07-.58.16-.62,1.51-2.41,6.53-.36,9.9,2.1,3.46,7.97,7.8,9.52,8.91.16.11.37,0,.36-.2Z"/>
      <path class="cls-11" d="M56.3,24.9l-2.25-5.72c-.27-.69-.75-1.27-1.37-1.67-1.63-1.04-4.98-3.08-7.23-3.82-.18-.06-.36.07-.37.26-.08,1.22-.15,5.22,2.11,7.13,2.32,1.96,7.53,3.64,8.9,4.06.14.04.26-.09.21-.23Z"/>
      <path class="cls-4" d="M60.86,50.03l1.07-7.22c.13-.87.53-1.67,1.14-2.3,1.61-1.64,4.93-4.9,7.34-6.35.19-.11.43-.02.5.2.42,1.39,1.57,6-.53,8.81-2.16,2.88-7.74,6.22-9.21,7.07-.15.09-.32-.04-.3-.21Z"/>
      <path class="cls-3" d="M62.16,38.14l-.74-7.26c-.09-.87.1-1.75.54-2.51,1.16-1.99,3.57-5.96,5.55-7.96.16-.16.42-.12.53.07.75,1.24,3,5.43,1.65,8.67-1.39,3.33-5.97,7.93-7.19,9.12-.12.12-.32.04-.34-.13Z"/>
      <path class="cls-9" d="M59.64,24.47l-2.17-6.97c-.26-.84-.25-1.73.03-2.57.74-2.18,2.32-6.55,3.86-8.9.12-.19.38-.2.53-.04.98,1.07,4.01,4.73,3.33,8.17-.7,3.53-4.28,8.96-5.24,10.36-.1.14-.31.11-.36-.06Z"/>
      <path class="cls-8" d="M5.67,94.6c.11-1.92,1.17-7.56,9.14-13.05.3-.21.72-.06.83.29.77,2.5,2.5,11.14-9.33,13.33-.35.06-.66-.22-.64-.57Z"/>
      <path class="cls-7" d="M18.03,91.47c-.39.17-.8-.19-.67-.6.62-2,1.75-6.29,2.3-8.76.49-2.22,3.67-5.86,5.11-7.31.28-.29.77-.14.84.26.53,2.97,1.45,12.53-7.57,16.41Z"/>
      <path class="cls-6" d="M28.06,86.67c-.25.11-.52-.11-.47-.38.37-2,1.25-8.02,1.39-10.49.14-2.6,4.11-10.69,6.72-11.93,2.57-1.22,5.94,16.89-7.64,22.79Z"/>
      <path class="cls-2" d="M40.06,76.62c.37-2.01.88-6.68-.56-13.44-.18-.85-.19-1.73-.03-2.58.33-1.79,1.15-4.89,3.09-7.76.25-.38.8-.39,1.06-.02,1.43,2.07,5.21,8.19,4.35,13.81-.05.32-.14.64-.26.94-.52,1.35-2.28,5.08-7.03,9.39-.27.24-.69.02-.62-.33Z"/>
      <path class="cls-5" d="M.23,101.52c.4-.38.7-.58,1.05-.82.34-.23.69-.44,1.04-.64.7-.4,1.4-.77,2.12-1.11,1.43-.69,2.87-1.33,4.33-1.9,2.92-1.15,5.87-2.22,8.85-3.17.74-.24,1.5-.46,2.23-.73l2.17-.81c.73-.25,1.41-.64,2.12-.95.7-.34,1.41-.64,2.08-1.04l2.03-1.14c.68-.37,1.31-.83,1.97-1.25.64-.44,1.32-.82,1.93-1.3l1.87-1.39c4.96-3.75,9.39-8.2,13.23-13.1l1.43-1.84,1.33-1.92c.92-1.26,1.68-2.61,2.49-3.94.42-.65.76-1.35,1.12-2.04l1.07-2.07.92-2.14c.31-.71.63-1.42.85-2.17,2.07-5.85,2.73-12.15,2.63-18.36-.14-6.22-1.15-12.44-3.23-18.31-.33-.93-.69-1.85-1.08-2.77-.28-.66-.55-1.75-1.1-2.24-.27-.23-.53-.46-.81-.69-.64-.52-1.32-1.01-2.01-1.46-.8-.53-1.63-1.01-2.48-1.44-.76-.39-1.58-.67-2.29-1.14-2.08-1.38-2.72-3.87-2.62-6.24.04-.89.17-1.77.38-2.63.1-.43.21-.86.76-.76.32.06.64.14.95.23,2.04.58,4.04,1.64,5.37,3.34.45.57.81,1.21,1.07,1.89.31.81.42,1.64.54,2.5.29,2.07.81,4.04,1.51,6,.63,1.79,1.52,3.49,2.17,5.29,2.12,5.9,3.17,12.16,3.34,18.42.09,1.57-.01,3.13-.05,4.7,0,.78-.12,1.56-.17,2.34-.08.78-.11,1.56-.24,2.34-.24,1.55-.41,3.11-.82,4.63-.19.76-.32,1.54-.57,2.29l-.75,2.24c-.22.75-.54,1.47-.86,2.19l-.93,2.17-1.08,2.09c-.36.7-.71,1.4-1.13,2.06-.82,1.34-1.59,2.71-2.51,3.97l-1.34,1.94-1.44,1.86c-3.88,4.92-8.29,9.44-13.28,13.25l-1.88,1.41c-.62.48-1.3.88-1.95,1.32-.66.42-1.29.89-1.98,1.27l-2.05,1.17c-.67.41-1.4.72-2.1,1.07-.72.32-1.4.72-2.15.98-1.47.56-2.95,1.12-4.42,1.61-2.94,1.03-5.87,2.1-8.7,3.38-1.42.63-2.82,1.3-4.16,2.05-.67.37-1.33.77-1.96,1.19-.31.21-.63.42-.92.65-.28.21-.61.49-.76.66l-.05.06s-.02.02-.03.03c-.3.28-.77.27-1.05-.02-.28-.3-.27-.77.02-1.05Z"/>
    </g>
  </g>
</svg>