<svg width="103" height="267" viewBox="0 0 103 267" fill="none" xmlns="http://www.w3.org/2000/svg">
<path d="M79.9478 245.931C67.5438 245.931 63.2743 252.847 59.5435 257.157C63.7213 260.978 68.5483 266.431 79.9478 266.657C91.6337 266.889 98.4375 259.407 102.338 255.382C97.7503 251.16 88.7566 245.931 79.9478 245.931ZM56.4849 225.152C44.7773 223.13 37.8217 229.071 33.7466 233.058C37.5935 237.212 42.0316 243.346 53.3726 244.516C64.9994 245.715 73.7952 240.114 78.0161 236.426C73.7935 231.838 65.1653 226.652 56.4849 225.152ZM91.0435 195.657C87.545 200.109 82.5435 209.657 83.5864 219.562C85.2533 235.392 89.6342 238.477 93.5435 240.157C96.8337 238.378 101.165 232.606 100.543 221.657C99.6851 206.549 93.712 199.614 91.0435 195.657ZM43.2651 201.059C32.0433 197.158 24.2132 201.887 19.5435 205.157C22.663 209.882 26.0435 216.657 37.0435 219.657C48.3198 222.733 57.9093 218.64 62.6743 215.688C59.2548 210.473 51.5858 203.951 43.2651 201.059ZM76.6733 175.706C72.5374 179.573 65.2193 188.388 64.9604 198.246C64.5428 214.158 69.5433 218.158 73.1509 220.414C76.6737 219.158 81.0427 214.157 82.0962 203.241C83.5499 188.179 78.708 180.023 76.6733 175.706ZM63.0679 151.997C58.4983 155.34 50.6197 163.291 48.7378 172.971C46.8297 182.787 51.9906 191.852 54.2114 195.96C58.5055 192.083 63.0544 186.471 65.1509 179.984C69.804 165.585 64.5704 156.527 63.0679 151.997ZM31.9829 170.981C22.7686 164.158 13.5435 163.657 8.04346 165.157C9.38301 170.658 12.3887 178.768 20.4575 185.175C29.611 192.443 39.8247 192.476 45.3071 191.308C43.8505 185.245 39.062 176.224 31.9829 170.981ZM61.5425 124.657C56.1202 126.286 46.0434 131.158 41.0435 139.657C35.9733 148.276 37.8183 158.544 38.5435 163.157C43.8841 160.933 50.043 157.157 54.1812 151.739C63.3666 139.713 61.4495 129.429 61.5425 124.657ZM1.5083 121.03C1.1703 126.682 2.73504 135.362 8.56201 143.859C15.1723 153.499 24.9248 156.535 30.5083 157.031C30.8997 150.808 28.9761 140.778 23.7524 133.685C14.7791 121.5 8.56184 121.03 1.5083 121.03ZM62.0425 94.7539C55.2428 94.6303 44.8502 97.667 39.5435 106.157C34.5435 114.157 36.7984 122.833 38.0435 127.157C45.0433 127.157 51.7198 121.66 55.4253 116.951C60.8728 110.028 62.4387 99.3978 62.0425 94.7539ZM0.043457 86.1572C-0.294548 91.8089 1.26922 100.489 7.09619 108.986C13.7065 118.626 23.4599 121.661 29.0435 122.157C29.4348 115.934 27.511 105.905 22.2876 98.8115C13.3143 86.6267 7.09689 86.1573 0.043457 86.1572ZM64.5767 68.5723C57.8831 67.3687 47.5145 68.1223 40.7349 75.4902C33.9637 82.8489 33.545 90.9683 34.0864 95.4355C40.9001 97.6317 50.1057 93.4943 54.5132 89.4346C60.9924 83.4665 64.2292 73.2202 64.5767 68.5723ZM12.4536 44.9834C10.3151 50.2258 8.60332 60.9831 11.3862 70.9033C14.5433 82.1573 22.5434 89.1577 27.6704 91.4238C30.0434 85.6577 31.707 74.554 29.0435 66.1572C24.4679 51.733 16.108 48.0531 12.4536 44.9834ZM71.0435 40.6572C64.5434 38.6571 54.1603 38.1588 46.5435 44.6572C38.9363 51.1477 37.5435 59.1572 37.5435 63.6572C44.0435 66.6571 53.6796 63.6572 58.5435 60.1572C65.6935 55.0119 70.1394 45.2294 71.0435 40.6572ZM36.5435 4.15723C32.3768 7.99052 25.0435 17.1574 24.5435 27.1572C24.0441 37.1447 27.8768 48.8238 30.5435 52.6572C34.3768 48.3239 40.3793 41.3888 41.5435 32.6572C43.5433 17.6574 38.5434 8.49053 36.5435 4.15723ZM80.7124 0C74.0434 0.157709 63.5359 2.53528 57.0435 10.1572C50.5592 17.7698 48.7665 27.4928 48.5435 32.1572C55.0434 32.1572 62.2977 32.3691 68.5435 26.1572C79.2726 15.4862 80.5433 4.65778 80.7124 0Z" fill="currentColor"/>
</svg>
