<svg width="50" height="26" viewBox="0 0 50 26" fill="none" xmlns="http://www.w3.org/2000/svg">
<path d="M37.0752 0C44.2132 0.000198421 49.9997 5.78683 50 12.9248C50 20.0631 44.2134 25.8504 37.0752 25.8506H12.9248C5.7866 25.8504 0 20.0631 0 12.9248C0.000330225 5.78683 5.7868 0.000197616 12.9248 0H37.0752ZM26.8711 3.40137C24.2921 3.40137 21.9532 4.4278 20.2383 6.09277C18.5235 4.42788 16.1843 3.40147 13.6055 3.40137C8.34599 3.40157 4.08237 7.66536 4.08203 12.9248C4.08203 18.1845 8.34579 22.449 13.6055 22.4492C16.1848 22.4491 18.5234 21.4213 20.2383 19.7559C21.9533 21.4214 24.2916 22.4492 26.8711 22.4492C32.1308 22.449 36.3945 18.1845 36.3945 12.9248C36.3942 7.66536 32.1306 3.40158 26.8711 3.40137ZM11.9043 8.50391C14.7219 8.50391 17.0066 10.7879 17.0068 13.6055C17.0067 16.4231 14.722 18.708 11.9043 18.708C9.08682 18.7077 6.80287 16.423 6.80273 13.6055C6.80299 10.7881 9.0869 8.50416 11.9043 8.50391ZM25.8506 8.50391C28.6681 8.50405 30.9519 10.788 30.9521 13.6055C30.952 16.423 28.6682 18.7079 25.8506 18.708C23.0329 18.708 20.7482 16.4231 20.748 13.6055C20.7483 10.7879 23.033 8.50391 25.8506 8.50391Z" fill="white"/>
</svg>
